<svg xmlns="http://www.w3.org/2000/svg" viewBox="0 0 36.99 36.99"><defs><style>.cls-1{fill:none;}.cls-2{fill:#fff;}</style></defs><g id="图层_2" data-name="图层 2"><g id="图层_1-2" data-name="图层 1"><rect class="cls-1" width="36.99" height="36.99"/><path class="cls-2" d="M30.69,8.26H6.3a4.86,4.86,0,0,0-5,4.7v15a4.86,4.86,0,0,0,5,4.7H30.69a4.86,4.86,0,0,0,5-4.7V13A4.86,4.86,0,0,0,30.69,8.26Zm.83,18a2.18,2.18,0,0,1-2.24,2.11H8a2.19,2.19,0,0,1-2.25-2.11V14.57A2.18,2.18,0,0,1,8,12.47H29.28a2.17,2.17,0,0,1,2.24,2.1Z"/><rect class="cls-2" x="22.51" y="17" width="4.21" height="6.77" rx="1.87"/><rect class="cls-2" x="10.58" y="17" width="4.21" height="6.77" rx="1.87"/><rect class="cls-2" x="10.09" y="2.31" width="4.4" height="11.15" rx="2.2" transform="translate(-1.97 11) rotate(-45)"/><rect class="cls-2" x="22.5" y="2.31" width="4.4" height="11.15" rx="2.2" transform="translate(36.59 30.92) rotate(-135)"/></g></g></svg>