<svg xmlns="http://www.w3.org/2000/svg" viewBox="0 0 230.66 230.66"><defs><style>.cls-1{fill:#fff;}</style></defs><g id="图层_2" data-name="图层 2"><g id="图层_1-2" data-name="图层 1"><path class="cls-1" d="M115.33,0A115.33,115.33,0,1,0,230.66,115.33,115.34,115.34,0,0,0,115.33,0ZM66.78,139.91c1.81,5.6-2.37,3.59-4.65,4a12.92,12.92,0,0,1-2.49,0c-4.53,0-9-.31-13.19-2.24-8.51-3.92-13.2-11.67-12.83-21.28.35-9.41,5-15.87,14.25-19,3.53-1.18,4.8-2.86,5.24-6.58,2.24-19,17.14-29.08,35.25-23.71,3.69,1.09,5.41-.17,7.43-2.81C104,57.6,115,53.18,128.32,55.47S150.64,65.39,155.4,78c.81,2.13,2.68,4.7.09,6.83s-9.27,1.83-11.44-.25c-13.85-13.21-35.8-12.39-48.11,1.81a35.36,35.36,0,0,0-7,12.57,7.47,7.47,0,0,1-5,5C66.5,110.71,61,122.1,66.78,139.91Zm126.82,3.91c-2.23,6.22-6.63,9.39-13.74,9.43-14.5.09-29,0-43.48,0-14,0-28,.1-42,0-15.78-.14-24.83-11.63-21.45-27.1,1.7-7.78,7.23-11.93,14.48-13.53,4.74-1,6.82-3.33,8-8,6.32-23.89,35.8-24.31,46.63-10.88,2.27,2.81,4.4,3,7.76,2.15,15.22-4.08,27.22,3.77,29.74,19.25.44,2.7,1.84,4,4.15,5C193.46,124.62,197.2,133.74,193.6,143.82Z"/></g></g></svg>